<svg version="1.2" xmlns="http://www.w3.org/2000/svg" viewBox="0 0 32 45" width="32" height="45">
	<style>
		.s0 { fill: none;stroke: #8d9ab5;stroke-linejoin: round;stroke-dasharray: 1.5 } 
		.s1 { fill: #5d85d5;stroke: #113680;stroke-miterlimit:10;stroke-width: 2 } 
	</style>
	<path id="Shape 2" fill-rule="evenodd" class="s0" d="m29.06 2.96v40h-26.06v-40z"/>
	<path id="Shape 1" fill-rule="evenodd" class="s0" d="m16.03 42.96c-7.2 0-13.03-4.92-13.03-11.01 0-6.09 5.83-11.01 13.03-11.01 7.21 0 13.03 4.92 13.03 11.01 0 6.09-5.82 11.01-13.03 11.01z"/>
	<path id="Shape 1 copy" fill-rule="evenodd" class="s0" d="m16.03 39c-4.61 0-8.34-3.15-8.34-7.05 0-3.9 3.73-7.05 8.34-7.05 4.62 0 8.35 3.15 8.35 7.05 0 3.9-3.73 7.05-8.35 7.05z"/>
	<path id="Shape 2 copy" fill-rule="evenodd" class="s0" d="m2.95 32.18l26.11 0.04z"/>
	<path id="Shape 1 copy 2" fill-rule="evenodd" class="s0" d="m16.03 24.98c-7.2 0-13.03-4.92-13.03-11.01 0-6.09 5.83-11.01 13.03-11.01 7.21 0 13.03 4.92 13.03 11.01 0 6.09-5.82 11.01-13.03 11.01z"/>
	<path id="Shape 1 copy 3" fill-rule="evenodd" class="s0" d="m16.03 21.02c-4.61 0-8.34-3.15-8.34-7.05 0-3.9 3.73-7.05 8.34-7.05 4.62 0 8.35 3.15 8.35 7.05 0 3.9-3.73 7.05-8.35 7.05z"/>
	<path id="Shape 2 copy 2" fill-rule="evenodd" class="s0" d="m2.95 14.2l26.11 0.04z"/>
	<path id="Shape 1 copy 6" fill-rule="evenodd" class="s1" d="m16.03 42.96c-7.06 0-12.79-4.72-13.02-10.64h4.69c0.22 3.73 3.86 6.68 8.33 6.68 4.62 0 8.35-3.15 8.35-7.05 0-3.62-3.21-6.59-7.35-7q-0.5 0.03-1 0.03c-7.2 0-13.03-4.92-13.03-11.01 0-6.09 5.83-11.01 13.03-11.01 7.21 0 13.03 4.92 13.03 11.01q0 0.18-0.01 0.37h-4.68q0.01-0.19 0.01-0.37c0-3.9-3.73-7.05-8.35-7.05-4.61 0-8.34 3.15-8.34 7.05 0 3.62 3.2 6.59 7.35 7q0.49-0.03 0.99-0.03c7.21 0 13.03 4.92 13.03 11.01 0 6.09-5.82 11.01-13.03 11.01z"/>
	<g id="Layer 1">
	</g>
</svg>